<svg xmlns="http://www.w3.org/2000/svg" width="27.2" height="22.47" viewBox="0 0 27.2 22.47">
  <path id="calendar" d="M25.835,27.47H3.365A2.365,2.365,0,0,1,1,25.1V7.365A2.365,2.365,0,0,1,3.365,5h22.47A2.365,2.365,0,0,1,28.2,7.365V25.1A2.365,2.365,0,0,1,25.835,27.47Zm1.183-20.1a1.183,1.183,0,0,0-1.183-1.183H3.365A1.183,1.183,0,0,0,2.183,7.365v3.548H27.018Zm0,4.73H2.183V25.1a1.183,1.183,0,0,0,1.183,1.183h22.47A1.183,1.183,0,0,0,27.018,25.1Zm-2.365,8.278H23.47a.591.591,0,0,1-.591-.591V18.6a.592.592,0,0,1,.591-.591h1.183a.591.591,0,0,1,.591.591v1.183A.591.591,0,0,1,24.652,20.374Zm0-4.139H23.47a.591.591,0,0,1-.591-.591V14.461a.591.591,0,0,1,.591-.591h1.183a.591.591,0,0,1,.591.591v1.183A.591.591,0,0,1,24.652,16.235Zm-4.73,4.139H18.739a.591.591,0,0,1-.591-.591V18.6a.592.592,0,0,1,.591-.591h1.183a.591.591,0,0,1,.591.591v1.183A.591.591,0,0,1,19.922,20.374Zm0-4.139H18.739a.591.591,0,0,1-.591-.591V14.461a.591.591,0,0,1,.591-.591h1.183a.591.591,0,0,1,.591.591v1.183A.591.591,0,0,1,19.922,16.235Zm-4.73,4.139H14.009a.591.591,0,0,1-.591-.591V18.6a.591.591,0,0,1,.591-.591h1.183a.591.591,0,0,1,.591.591v1.183A.591.591,0,0,1,15.191,20.374Zm0-4.139H14.009a.591.591,0,0,1-.591-.591V14.461a.591.591,0,0,1,.591-.591h1.183a.591.591,0,0,1,.591.591v1.183A.591.591,0,0,1,15.191,16.235Zm-4.73,8.278H9.278a.591.591,0,0,1-.591-.591V22.739a.591.591,0,0,1,.591-.591h1.183a.591.591,0,0,1,.591.591v1.183A.591.591,0,0,1,10.461,24.513Zm0-4.139H9.278a.591.591,0,0,1-.591-.591V18.6a.591.591,0,0,1,.591-.591h1.183a.591.591,0,0,1,.591.591v1.183A.591.591,0,0,1,10.461,20.374Zm0-4.139H9.278a.591.591,0,0,1-.591-.591V14.461a.591.591,0,0,1,.591-.591h1.183a.591.591,0,0,1,.591.591v1.183A.591.591,0,0,1,10.461,16.235ZM5.73,24.513H4.548a.591.591,0,0,1-.591-.591V22.739a.591.591,0,0,1,.591-.591H5.73a.591.591,0,0,1,.591.591v1.183A.591.591,0,0,1,5.73,24.513Zm0-4.139H4.548a.591.591,0,0,1-.591-.591V18.6a.591.591,0,0,1,.591-.591H5.73a.591.591,0,0,1,.591.591v1.183A.591.591,0,0,1,5.73,20.374Zm8.278,1.774h1.183a.591.591,0,0,1,.591.591v1.183a.591.591,0,0,1-.591.591H14.009a.591.591,0,0,1-.591-.591V22.739A.591.591,0,0,1,14.009,22.148Z" transform="translate(-1 -5)" fill-rule="evenodd"/>
</svg>
