<svg id="undraw_Questions_re_1fy7" xmlns="http://www.w3.org/2000/svg" width="542.675" height="382.436" viewBox="0 0 542.675 382.436">
  <circle id="Ellipse_1" data-name="Ellipse 1" cx="29.553" cy="29.553" r="29.553" transform="translate(247.602 322.518)" fill="#0068b7"/>
  <path id="Path_1" data-name="Path 1" d="M675.582,549.1c16.534-4.965,34.111-10.143,47.223-21.947,11.717-10.548,19.627-26.655,14.773-42.474-4.844-15.787-19.354-26.313-34.335-31.549a140.868,140.868,0,0,0-26.271-5.911c-9.659-1.407-19.361-2.559-29.059-3.669q-58.9-6.737-118.242-8.231c-19.521-.492-39.039-.48-58.562-.2-17.436.253-35.8.247-51.975-7.164-12.578-5.763-23.995-16.247-27.5-30.025-4.046-15.9,3.417-32.1,14.121-43.618a114.329,114.329,0,0,1,19.04-15.88c7.38-5.1,15.018-9.834,22.821-14.255a317.788,317.788,0,0,1,48.035-22.145c8.189-2.978,16.5-5.546,24.881-7.916a212.894,212.894,0,0,0,21.019-6.731c13.224-5.271,25.8-14.2,29.164-28.835,3.187-13.872-2.186-28.931-11.606-39.236-10.9-11.922-27.33-17.149-43.084-17.994-17.686-.949-34.965,3.477-51.588,9.095-17.73,5.992-35.078,12.881-53.182,17.734a357.821,357.821,0,0,1-54.735,10.174c-9.047.963-18.368,2.051-27.47,1.314-7.628-.618-15.216-2.861-20.838-8.275-4.82-4.642-7.691-11.021-6.7-17.753.179-1.223,2.037-.7,1.859.512-1.2,8.195,4.369,15.746,11.233,19.614,7.933,4.47,17.587,4.477,26.419,3.965a345.539,345.539,0,0,0,56.868-8.221c18.37-4.2,36.083-10.194,53.777-16.6,16.8-6.085,33.984-12.024,51.937-13.342,15.577-1.144,31.964,1.126,45.534,9.266a50.373,50.373,0,0,1,23.491,32.777c2.731,13.379-1.051,26.845-11.179,36.182-10.486,9.667-24.864,13.8-38.263,17.606a350.561,350.561,0,0,0-49.722,17.8,312.134,312.134,0,0,0-46.772,26.295c-14.293,9.767-28.4,22.056-32.918,39.48a36.37,36.37,0,0,0,1.806,24.391,44.573,44.573,0,0,0,14.3,16.973c14.34,10.552,32.414,12.719,49.736,12.934,19.455.242,38.91-.415,58.371-.1q59.492.976,118.74,7.242,14.846,1.572,29.655,3.474a268.154,268.154,0,0,1,26.52,4.3c15.523,3.6,30.629,10.531,40.277,23.693a37.466,37.466,0,0,1,3.191,40.968c-7.409,14.578-21.287,23.85-36.025,29.942a255.615,255.615,0,0,1-24.254,8.189.965.965,0,0,1-.512-1.859Z" transform="translate(-221.873 -169.136)" fill="#f2f2f2"/>
  <circle id="Ellipse_2" data-name="Ellipse 2" cx="15.419" cy="15.419" r="15.419" transform="translate(65.463 29.232)" fill="#f2f2f2"/>
  <circle id="Ellipse_3" data-name="Ellipse 3" cx="15.419" cy="15.419" r="15.419" transform="translate(172.433 58.464)" fill="#f2f2f2"/>
  <circle id="Ellipse_4" data-name="Ellipse 4" cx="15.419" cy="15.419" r="15.419" transform="translate(263.021)" fill="#f2f2f2"/>
  <circle id="Ellipse_5" data-name="Ellipse 5" cx="15.419" cy="15.419" r="15.419" transform="translate(319.558 65.532)" fill="#f2f2f2"/>
  <circle id="Ellipse_6" data-name="Ellipse 6" cx="15.419" cy="15.419" r="15.419" transform="translate(243.105 141.343)" fill="#f2f2f2"/>
  <circle id="Ellipse_7" data-name="Ellipse 7" cx="15.419" cy="15.419" r="15.419" transform="translate(146.092 177.963)" fill="#f2f2f2"/>
  <circle id="Ellipse_8" data-name="Ellipse 8" cx="15.419" cy="15.419" r="15.419" transform="translate(248.887 235.143)" fill="#f2f2f2"/>
  <circle id="Ellipse_9" data-name="Ellipse 9" cx="15.419" cy="15.419" r="15.419" transform="translate(359.391 267.266)" fill="#f2f2f2"/>
  <circle id="Ellipse_10" data-name="Ellipse 10" cx="15.419" cy="15.419" r="15.419" transform="translate(488.527 260.199)" fill="#f2f2f2"/>
  <path id="Path_2" data-name="Path 2" d="M557.009,220.372a85.523,85.523,0,0,0-84.662,84.045c-.006.426-.009,3.425-.009,7.346a21.682,21.682,0,0,0,21.678,21.681h0a21.694,21.694,0,0,0,21.69-21.709c0-2.672,0-4.519,0-4.632A41.118,41.118,0,1,1,579,341.718l.008.009s-30.857,19.865-40.264,47.115l.008,0a60.4,60.4,0,0,0-2.489,17.2c0,2.393.141,23.335.413,40.332a22.349,22.349,0,0,0,22.352,21.987h0a22.355,22.355,0,0,0,22.354-22.493c-.094-15.566-.146-33.692-.146-35.008,0-16.733,16.142-33.4,29.4-44.277a89.177,89.177,0,0,0,30.669-48.827,55.745,55.745,0,0,0,1.606-12.1,85.288,85.288,0,0,0-85.9-85.285Z" transform="translate(-283.019 -176.682)" fill="#0068b7"/>
  <path id="Path_3" data-name="Path 3" d="M719.575,746.78H178.427a.765.765,0,0,1,0-1.53H719.573a.765.765,0,0,1,0,1.53Z" transform="translate(-177.662 -364.344)" fill="#3f3d56"/>
  <circle id="Ellipse_11" data-name="Ellipse 11" cx="19.274" cy="19.274" r="19.274" transform="translate(384.483 136.843)" fill="#2f2e41"/>
  <path id="Path_4" data-name="Path 4" d="M566.544,565.222h-7.876l-3.747-30.381h11.625Z" transform="translate(-198.403 -191.224)" fill="#a0616a"/>
  <path id="Path_5" data-name="Path 5" d="M546.673,578.626h15.19v9.564H537.109A9.564,9.564,0,0,1,546.673,578.626Z" transform="translate(-192.035 -206.878)" fill="#2f2e41"/>
  <path id="Path_6" data-name="Path 6" d="M661.544,565.222h-7.876l-3.747-30.381h11.625Z" transform="translate(-232.368 -191.224)" fill="#a0616a"/>
  <path id="Path_7" data-name="Path 7" d="M641.673,578.626h15.19v9.564H632.109A9.564,9.564,0,0,1,641.673,578.626Z" transform="translate(-226 -206.878)" fill="#2f2e41"/>
  <circle id="Ellipse_12" data-name="Ellipse 12" cx="15.78" cy="15.78" r="15.78" transform="translate(385.049 143.944)" fill="#a0616a"/>
  <path id="Path_8" data-name="Path 8" d="M784.794,479.715l7.06-16.222a20.162,20.162,0,0,0-4.465-22.872,20.5,20.5,0,0,0-1.973-1.715,19.875,19.875,0,0,0-12.2-4.221,20.674,20.674,0,0,0-8.609,1.915c-.232.1-.456.212-.688.321-.443.212-.88.443-1.3.681a20.352,20.352,0,0,0-10.087,15.342l-3.116,26.11c-.784,2.049-28.744,76.062-18.965,132.566a2.87,2.87,0,0,0,2.454,2.358l9.913,1.349a2.889,2.889,0,0,0,3.219-2.268l16.633-79.287a2.251,2.251,0,0,1,4.369-.148L790.538,617a2.873,2.873,0,0,0,2.769,2.107,3.284,3.284,0,0,0,.559-.051l12.11-2.332a2.873,2.873,0,0,0,2.332-3.09C806.529,593.792,797.072,494.383,784.794,479.715Z" transform="translate(-374.561 -253.307)" fill="#2f2e41"/>
  <path id="Path_9" data-name="Path 9" d="M706.078,418.2a6.461,6.461,0,0,0,6.806,7.2l8.82,21.2,6.672-9.89-9.4-18.612a6.5,6.5,0,0,0-12.9.108Z" transform="translate(-366.573 -245.345)" fill="#a0616a"/>
  <path id="Path_10" data-name="Path 10" d="M796.123,523.529a6.461,6.461,0,0,0,5.414-8.3l18.558-13.516-11.173-4.184-15.91,13.477a6.5,6.5,0,0,0,3.111,12.52Z" transform="translate(-396.17 -275.777)" fill="#a0616a"/>
  <path id="Path_11" data-name="Path 11" d="M740.409,470.012a10.954,10.954,0,0,1-2.119-.209,10.476,10.476,0,0,1-7.676-6.178l-12.357-15.068a2.892,2.892,0,0,1,.714-4.292l8.792-5.442a2.891,2.891,0,0,1,3.993.957l8.709,14.349L757.144,441.8a6.246,6.246,0,0,1,7.266,10l-16.648,15.186A10.441,10.441,0,0,1,740.409,470.012Z" transform="translate(-370.709 -254.631)" fill="#2f2e41"/>
  <path id="Path_12" data-name="Path 12" d="M817.293,495.3h-.068a2.9,2.9,0,0,1-2.127-1.009l-7.817-9.119a2.891,2.891,0,0,1,.591-4.287l14.636-9.758L809.25,455.182a6.245,6.245,0,0,1,9.564-7.827L834.93,463.1a10.617,10.617,0,0,1-2.361,17.308L819.4,494.388A2.9,2.9,0,0,1,817.293,495.3Z" transform="translate(-402.524 -257.253)" fill="#2f2e41"/>
  <path id="Path_13" data-name="Path 13" d="M790.449,456.855a2.972,2.972,0,0,1-.374-.024,2.866,2.866,0,0,1-2.385-1.972l-5.874-18.008a1.98,1.98,0,0,1,1.024-2.393l.191-.09c.173-.082.344-.163.519-.241a20.929,20.929,0,0,1,8.74-1.942,20.127,20.127,0,0,1,11.026,3.313,2.011,2.011,0,0,1,.579,2.759l-11.018,17.261A2.863,2.863,0,0,1,790.449,456.855Z" transform="translate(-393.634 -252.413)" fill="#e6e6e6"/>
  <circle id="Ellipse_13" data-name="Ellipse 13" cx="6.307" cy="6.307" r="6.307" transform="translate(412.646 134.898)" fill="#2f2e41"/>
  <path id="Path_14" data-name="Path 14" d="M786.815,361.365h0a16.7,16.7,0,0,0-16.7,16.7v7.067H778.8l4.157-7.067,1.247,7.067h26.379l-7.067-7.067a16.7,16.7,0,0,0-16.7-16.7Z" transform="translate(-389.483 -227.092)" fill="#2f2e41"/>
  <path id="Path_15" data-name="Path 15" d="M834.809,361.664a9.733,9.733,0,0,1,10.588-6.679c4.019.672,7.2,3.9,9.091,7.511s2.768,7.647,4.041,11.518,3.078,7.763,6.292,10.269,8.145,3.186,11.3.608a12.925,12.925,0,0,1-24.078,4.614c-1.665-2.963-2.1-6.435-2.589-9.8s-1.135-6.842-3.124-9.6-5.71-4.557-8.869-3.3Z" transform="translate(-412.615 -224.779)" fill="#2f2e41"/>
  <path id="Path_16" data-name="Path 16" d="M499.969,342.835h0a21.681,21.681,0,0,1-21.679-21.678c0-3.924,0-6.922.008-7.349a84.488,84.488,0,0,1,9.868-38.489,84.679,84.679,0,0,0-16.292,48.769c-.006.426-.009,3.425-.008,7.346a21.682,21.682,0,0,0,21.678,21.681h0a21.7,21.7,0,0,0,20.872-15.8,21.6,21.6,0,0,1-14.448,5.519Z" transform="translate(-282.85 -196.328)" fill="#3f3d56"/>
  <path id="Path_17" data-name="Path 17" d="M587.907,285.731a41.12,41.12,0,0,1,35.759,57.445,41.116,41.116,0,1,0-69.018-43.036,41.035,41.035,0,0,1,33.259-14.409Z" transform="translate(-312.447 -196.359)" fill="#3f3d56"/>
  <path id="Path_18" data-name="Path 18" d="M600.553,541.615h0A22.35,22.35,0,0,1,578.2,519.623c-.272-16.992-.413-37.934-.413-40.327a60.391,60.391,0,0,1,2.489-17.2l-.008,0a61.073,61.073,0,0,1,3.53-8.16,70.7,70.7,0,0,0-9.954,18.439l.008,0a60.4,60.4,0,0,0-2.489,17.2c0,2.393.141,23.335.413,40.332a22.349,22.349,0,0,0,22.351,21.987h0a22.359,22.359,0,0,0,21.458-16.089A22.268,22.268,0,0,1,600.553,541.615Z" transform="translate(-318.424 -260.19)" fill="#3f3d56"/>
  <path id="Path_19" data-name="Path 19" d="M126.54,565.678h7.876l3.747-30.381H126.538Z" transform="translate(-45.242 -191.386)" fill="#ffb8b8"/>
  <path id="Path_20" data-name="Path 20" d="M0,0H24.755V9.564H9.564A9.564,9.564,0,0,1,0,0Z" transform="translate(104.363 381.605) rotate(179.997)" fill="#2f2e41"/>
  <path id="Path_21" data-name="Path 21" d="M82.54,565.678h7.876L94.163,535.3H82.538Z" transform="translate(-29.51 -191.386)" fill="#ffb8b8"/>
  <path id="Path_22" data-name="Path 22" d="M0,0H24.755V9.564H9.564A9.564,9.564,0,0,1,0,0Z" transform="translate(76.095 381.605) rotate(179.997)" fill="#2f2e41"/>
  <path id="Path_23" data-name="Path 23" d="M265.052,661.753l-7.694-.4a3,3,0,0,1-2.839-3.191l9.2-101.809,42.346,11.427,4.08-1.113L297.383,656.79a3.017,3.017,0,0,1-2.8,2.534l-8.294.386a3,3,0,0,1-3.168-3.081l1.5-54.093a1,1,0,0,0-1.981-.231L268.15,659.364a2.985,2.985,0,0,1-2.935,2.393C265.161,661.758,265.107,661.756,265.052,661.753Z" transform="translate(-205.139 -296.805)" fill="#2f2e41"/>
  <circle id="Ellipse_14" data-name="Ellipse 14" cx="15.78" cy="15.78" r="15.78" transform="translate(66.933 144.682)" fill="#ffb8b8"/>
  <path id="Path_24" data-name="Path 24" d="M265.5,460.374l1.735,37.435.627,13.619a2.982,2.982,0,0,0,1.975,2.683l40.691,14.74a2.875,2.875,0,0,0,1.028.18,2.983,2.983,0,0,0,3-3.076l-1.668-67.309a23.727,23.727,0,0,0-19.752-22.921c-.394-.06-.794-.12-1.194-.174a23.289,23.289,0,0,0-18.737,6.066,23.923,23.923,0,0,0-7.7,18.757Z" transform="translate(-209.056 -253.553)" fill="#ccc"/>
  <path id="Path_25" data-name="Path 25" d="M356.256,553.18a6.466,6.466,0,0,1-3.449-9.783l-13.8-18.349,11.908-.737,11.278,17.537a6.5,6.5,0,0,1-5.938,11.331Z" transform="translate(-235.349 -285.351)" fill="#ffb8b8"/>
  <path id="Path_26" data-name="Path 26" d="M337.927,514.2a2.984,2.984,0,0,1-1.633-1.618l-20.789-49.531a8.007,8.007,0,1,1,14.767-6.2l20.789,49.531a3.006,3.006,0,0,1-1.606,3.931l-9.229,3.873a2.982,2.982,0,0,1-2.3.011Z" transform="translate(-226.722 -259.478)" fill="#ccc"/>
  <path id="Path_27" data-name="Path 27" d="M298.31,523.919l19.967-38.232a3.134,3.134,0,0,1,4.224-1.326L351.484,499.5a3.134,3.134,0,0,1,1.326,4.224l-19.967,38.232a3.134,3.134,0,0,1-4.224,1.326l-28.983-15.136a3.134,3.134,0,0,1-1.325-4.224Z" transform="translate(-220.671 -270.941)" fill="#3f3d56"/>
  <path id="Path_28" data-name="Path 28" d="M303.138,510.286a6.466,6.466,0,0,0-9.969-2.866l-19.132-12.691L274,506.659l18.172,10.223a6.5,6.5,0,0,0,10.961-6.6Z" transform="translate(-212.108 -274.774)" fill="#ffb8b8"/>
  <path id="Path_29" data-name="Path 29" d="M268.817,494.847l-15.636-12.385a11.027,11.027,0,0,1-5.026-17.434l14.2-18.605a6.486,6.486,0,0,1,11.005,6.607L262.124,471.4l16.508,7.83a3,3,0,0,1,1.252,4.317L273.22,494.1a3.008,3.008,0,0,1-2.035,1.356l-.05.008A3.017,3.017,0,0,1,268.817,494.847Z" transform="translate(-201.975 -256.653)" fill="#ccc"/>
  <path id="Path_30" data-name="Path 30" d="M283.528,400.325a1.371,1.371,0,0,1,1.193-1.811,3.168,3.168,0,0,1,2.233,1.1,8.889,8.889,0,0,0,1.973,1.694,1.7,1.7,0,0,0,2.234-.4,3.107,3.107,0,0,0-.119-2.411,23.708,23.708,0,0,1-1.047-6.277,11.053,11.053,0,0,1,1.58-6.713c1.7-2.393,4.736-3.3,7.61-3.236s5.7.953,8.549,1.514c.983.194,2.138.293,2.8-.469.7-.81.442-2.121.145-3.215-.772-2.838-1.59-5.772-3.383-8.064a12.141,12.141,0,0,0-7.749-4.362,18.592,18.592,0,0,0-8.649.982,23.191,23.191,0,0,0-11.361,7.914,18.783,18.783,0,0,0-3.584,13.877,17.133,17.133,0,0,0,6.351,10.829Z" transform="translate(-212.739 -229.297)" fill="#2f2e41"/>
  <path id="Path_31" data-name="Path 31" d="M586.068,709.589A29.549,29.549,0,0,1,575.1,663.66a29.552,29.552,0,1,0,40.2,42.7,29.533,29.533,0,0,1-29.231,3.228Z" transform="translate(-315.424 -335.173)" fill="#3f3d56"/>
</svg>
