<svg id="comment" xmlns="http://www.w3.org/2000/svg" width="17.783" height="17.5" viewBox="0 0 17.783 17.5">
  <path id="Path_96" data-name="Path 96" d="M18.167,19.5,12.791,18a9,9,0,0,1-1.9.162C5.759,18.167,2,14.772,2,10.083A7.654,7.654,0,0,1,4.263,4.506,9.429,9.429,0,0,1,10.892,2c5.133,0,8.892,3.395,8.892,8.083a7.724,7.724,0,0,1-1.617,4.769Zm-5.375-2.3,4.567,1.253V14.61l.081-.121a6.958,6.958,0,0,0,1.536-4.405c0-4.2-3.395-7.275-8.083-7.275A8.571,8.571,0,0,0,4.829,5.072a6.924,6.924,0,0,0-2.021,5.012c0,4.2,3.395,7.275,8.083,7.275A7.992,7.992,0,0,0,12.71,17.2Z" transform="translate(-2 -2)"/>
</svg>
