<svg xmlns="http://www.w3.org/2000/svg" width="24" height="24" viewBox="0 0 24 24">
  <g id="commentico" transform="translate(0.455 0.455)">
    <g id="background">
      <rect id="Rectangle_48" data-name="Rectangle 48" width="24" height="24" transform="translate(-0.455 -0.455)" fill="none"/>
    </g>
    <g id="comment_x5F_accept" transform="translate(1.443 1.443)">
      <path id="Path_165" data-name="Path 165" d="M19.317,6.329H6.329V7.772H19.317Zm0,2.886H6.329v1.443H19.317Zm2.886,3.86V2H2V22.2H3.742l4.331-4.329H10.7a6.493,6.493,0,1,0,11.5-4.8ZM10.7,16.431H7.472L3.443,20.46V3.443H20.76v8.311a6.487,6.487,0,0,0-7.686.348H6.329v1.443h5.424A6.445,6.445,0,0,0,10.7,16.431Zm6.451,5.687a4.967,4.967,0,1,1,4.966-4.966A4.976,4.976,0,0,1,17.153,22.118Z" transform="translate(-2 -2)" fill="#f5f5f5"/>
      <path id="Path_166" data-name="Path 166" d="M18,21.886l1.443-1.443,1.443,1.443L23.772,19l1.443,1.443-4.329,4.329Z" transform="translate(-6.455 -6.734)" fill="#f5f5f5"/>
    </g>
  </g>
</svg>
