<svg xmlns="http://www.w3.org/2000/svg" width="210.705" height="142.2" viewBox="0 0 210.705 142.2">
  <g id="undraw_Content_creator_re_pt5b" transform="translate(0)">
    <path id="Path_64" data-name="Path 64" d="M699.652,308.946H595.408a1.377,1.377,0,0,1-1.375-1.375v-114.7a1.377,1.377,0,0,1,1.375-1.375H699.652a1.377,1.377,0,0,1,1.375,1.375v114.7A1.377,1.377,0,0,1,699.652,308.946ZM595.408,192.05a.826.826,0,0,0-.825.825v114.7a.826.826,0,0,0,.825.825H699.652a.826.826,0,0,0,.825-.825v-114.7a.826.826,0,0,0-.825-.825Z" transform="translate(-490.321 -191.5)" fill="#3f3d56"/>
    <path id="Path_65" data-name="Path 65" d="M690.763,275.105H664.908a1.377,1.377,0,0,1-1.375-1.375V247.875a1.377,1.377,0,0,1,1.375-1.375h25.855a1.377,1.377,0,0,1,1.375,1.375V273.73a1.377,1.377,0,0,1-1.375,1.375ZM664.908,247.05a.826.826,0,0,0-.825.825V273.73a.826.826,0,0,0,.825.825h25.855a.826.826,0,0,0,.825-.825V247.875a.826.826,0,0,0-.825-.825Z" transform="translate(-540.705 -231.372)" fill="#f2f2f2"/>
    <path id="Path_66" data-name="Path 66" d="M664.125,287.33H638.271a1.239,1.239,0,0,1-1.238-1.238V260.238A1.239,1.239,0,0,1,638.271,259h25.854a1.239,1.239,0,0,1,1.238,1.238v25.855A1.239,1.239,0,0,1,664.125,287.33Z" transform="translate(-521.494 -240.434)" fill="#e9b102"/>
    <path id="Path_67" data-name="Path 67" d="M719.135,401.475H638.271a1.238,1.238,0,1,1,0-2.475h80.864a1.238,1.238,0,1,1,0,2.475Z" transform="translate(-521.494 -341.927)" fill="#ccc"/>
    <path id="Path_68" data-name="Path 68" d="M699.607,432.475H638.271a1.238,1.238,0,1,1,0-2.475h61.336a1.238,1.238,0,1,1,0,2.475Z" transform="translate(-521.494 -364.401)" fill="#ccc"/>
    <path id="Path_69" data-name="Path 69" d="M837.027,287.475H801.271a1.238,1.238,0,1,1,0-2.475h35.756a1.238,1.238,0,1,1,0,2.475Z" transform="translate(-639.661 -259.283)" fill="#ccc"/>
    <path id="Path_70" data-name="Path 70" d="M828.1,318.475H801.271a1.238,1.238,0,1,1,0-2.475H828.1a1.238,1.238,0,1,1,0,2.475Z" transform="translate(-639.662 -281.757)" fill="#ccc"/>
    <path id="Path_71" data-name="Path 71" d="M719.135,463.475H638.271a1.238,1.238,0,1,1,0-2.475h80.864a1.238,1.238,0,1,1,0,2.475Z" transform="translate(-521.494 -386.874)" fill="#ccc"/>
    <path id="Path_72" data-name="Path 72" d="M699.607,494.475H638.271a1.238,1.238,0,0,1,0-2.475h61.336a1.238,1.238,0,0,1,0,2.475Z" transform="translate(-521.494 -409.348)" fill="#ccc"/>
    <path id="Path_73" data-name="Path 73" d="M719.135,525.475H638.271a1.238,1.238,0,1,1,0-2.475h80.864a1.238,1.238,0,1,1,0,2.475Z" transform="translate(-521.494 -431.822)" fill="#ccc"/>
    <path id="Path_74" data-name="Path 74" d="M719.135,556.475H638.271a1.238,1.238,0,0,1,0-2.475h80.864a1.238,1.238,0,1,1,0,2.475Z" transform="translate(-521.494 -454.295)" fill="#ccc"/>
    <path id="Path_75" data-name="Path 75" d="M538.974,476.143H479.838a1.377,1.377,0,0,1-1.375-1.375V438.186a1.377,1.377,0,0,1,1.375-1.375h59.135a1.377,1.377,0,0,1,1.375,1.375v36.581A1.377,1.377,0,0,1,538.974,476.143Z" transform="translate(-406.539 -369.339)" fill="#fff"/>
    <path id="Path_76" data-name="Path 76" d="M538.974,476.143H479.838a1.377,1.377,0,0,1-1.375-1.375V438.186a1.377,1.377,0,0,1,1.375-1.375h59.135a1.377,1.377,0,0,1,1.375,1.375v36.581A1.377,1.377,0,0,1,538.974,476.143Zm-59.135-38.782a.826.826,0,0,0-.825.825v36.581a.826.826,0,0,0,.825.825h59.135a.826.826,0,0,0,.825-.825V438.186a.826.826,0,0,0-.825-.825Z" transform="translate(-406.539 -369.339)" fill="#3f3d56"/>
    <path id="Path_77" data-name="Path 77" d="M558.457,490.786H522.7a1.238,1.238,0,1,1,0-2.475h35.756a1.238,1.238,0,0,1,0,2.475Z" transform="translate(-437.711 -406.674)" fill="#ccc"/>
    <path id="Path_78" data-name="Path 78" d="M558.457,521.786H522.7a1.238,1.238,0,1,1,0-2.475h35.756a1.238,1.238,0,0,1,0,2.475Z" transform="translate(-437.711 -429.147)" fill="#ccc"/>
    <path id="Path_79" data-name="Path 79" d="M230.334,470.609h3.372l1.6-13.006h-4.977Z" transform="translate(-166.98 -331.74)" fill="#a0616a"/>
    <path id="Path_80" data-name="Path 80" d="M444.174,692.388h6.641a4.232,4.232,0,0,1,4.232,4.232v.138H444.174Z" transform="translate(-381.681 -554.62)" fill="#2f2e41"/>
    <path id="Path_81" data-name="Path 81" d="M134.876,465.688l3.334.5,3.531-12.62-4.371-.744Z" transform="translate(-97.778 -328.278)" fill="#a0616a"/>
    <path id="Path_82" data-name="Path 82" d="M347.628,686.659l6.566.992h0a4.232,4.232,0,0,1,3.552,4.817l-.021.136-10.751-1.625Z" transform="translate(-311.216 -550.466)" fill="#2f2e41"/>
    <path id="Path_83" data-name="Path 83" d="M388.015,462.043l3.744.981-.249,6.07-.031,11.052a2.215,2.215,0,1,1-2.931.368L387.4,469.422Z" transform="translate(-340.52 -387.631)" fill="#a0616a"/>
    <path id="Path_84" data-name="Path 84" d="M386.23,428.944a3.056,3.056,0,0,1,1.889-2.718,2.857,2.857,0,0,1,3.093.5,2.724,2.724,0,0,1,.908,2.107,70.611,70.611,0,0,1-.8,8.791l-.013.082-5.473,1.843Z" transform="translate(-339.387 -361.485)" fill="#e9b102"/>
    <path id="Path_85" data-name="Path 85" d="M368.479,467.754l8.37-2.167,3.869,13.031.138,48.546-6.4-.04-2.676-39.292-17.053,36.306-6.876-.825,14.99-38.919s-.825-6.876,1.788-10.314l-.55-3.576Z" transform="translate(-311.85 -390.2)" fill="#2f2e41"/>
    <path id="Path_86" data-name="Path 86" d="M391.151,428.423a1.283,1.283,0,0,1-.274-1.032l-3.818-11.454a2.914,2.914,0,0,1,.8-3.076l1.657-1.507,1.123-4.493,6.456,1.578-.532,2.128,2.922-.531,6.154,13.706-12.863,5.142-.633.01A1.282,1.282,0,0,1,391.151,428.423Z" transform="translate(-340.167 -347.627)" fill="#91c4f2"/>
    <path id="Path_87" data-name="Path 87" d="M434.907,447l3.689-1.172,3.034,5.263,5.882,9.357a2.215,2.215,0,1,1-2.28,1.878l-6.9-8.76Z" transform="translate(-374.963 -375.876)" fill="#a0616a"/>
    <path id="Path_88" data-name="Path 88" d="M418.292,417.911a3.056,3.056,0,0,1,.144-3.307,2.859,2.859,0,0,1,2.88-1.233,2.724,2.724,0,0,1,1.894,1.3,70.628,70.628,0,0,1,4.022,7.858l.033.077-3.64,4.483Z" transform="translate(-362.615 -352.314)" fill="#e9b102"/>
    <circle id="Ellipse_15" data-name="Ellipse 15" cx="5.129" cy="5.129" r="5.129" transform="translate(50.124 48.14)" fill="#a0616a"/>
    <circle id="Ellipse_16" data-name="Ellipse 16" cx="4.941" cy="4.941" r="4.941" transform="translate(41.248 41.224)" fill="#2f2e41"/>
    <path id="Path_89" data-name="Path 89" d="M363.565,362.039a4.941,4.941,0,0,0,7.63-2.594,4.941,4.941,0,1,1-9.638-2.026A4.939,4.939,0,0,0,363.565,362.039Z" transform="translate(-321.638 -311.783)" fill="#2f2e41"/>
    <path id="Path_90" data-name="Path 90" d="M404.355,363.971a9.055,9.055,0,0,0-2.3-3.128,2.4,2.4,0,0,0-3.169-.287,5.877,5.877,0,1,0,3.486,4.7C403.215,365.139,403.507,364.09,404.355,363.971Z" transform="translate(-342.929 -313.709)" fill="#2f2e41"/>
    <path id="Path_91" data-name="Path 91" d="M322.035,707.05H217.242a.275.275,0,1,1,0-.55H322.035a.275.275,0,1,1,0,.55Z" transform="translate(-216.967 -564.85)" fill="#ccc"/>
  </g>
</svg>
