<svg xmlns="http://www.w3.org/2000/svg" width="80.691" height="79.8" viewBox="0 0 80.691 79.8">
  <g id="iconfinder__people_users_people_team_leader_group_community-15_4213440" transform="translate(-0.6 -0.9)">
    <path id="Path_32" data-name="Path 32" d="M55.273,42A15.273,15.273,0,1,0,70.545,57.273,15.318,15.318,0,0,0,55.273,42Zm0,25.455A10.182,10.182,0,1,1,65.455,57.273,10.212,10.212,0,0,1,55.273,67.455Z" transform="translate(-14.327 -14.945)" fill="#0068b7"/>
    <path id="Path_33" data-name="Path 33" d="M48.691,100.8a34.383,34.383,0,0,0-25.073,10.882L21.9,113.527l3.691,3.5,1.718-1.845a29.249,29.249,0,0,1,42.764,0l1.718,1.845,3.691-3.5-1.718-1.845A34.629,34.629,0,0,0,48.691,100.8Z" transform="translate(-7.745 -36.327)" fill="#0068b7"/>
    <path id="Path_34" data-name="Path 34" d="M97,47.9v5.091A21.29,21.29,0,0,1,112.655,59.8l3.691-3.5A26.479,26.479,0,0,0,97,47.9Z" transform="translate(-35.055 -17.091)" fill="#0068b7"/>
    <path id="Path_35" data-name="Path 35" d="M102.209,13.055A12.155,12.155,0,1,0,90.055,25.209,12.194,12.194,0,0,0,102.209,13.055Zm-19.218,0a7.064,7.064,0,1,1,7.064,7.064A7.089,7.089,0,0,1,82.991,13.055Z" transform="translate(-28.109)" fill="#0068b7"/>
    <path id="Path_36" data-name="Path 36" d="M19.945,47.9A26.479,26.479,0,0,0,.6,56.3l3.691,3.5a21.187,21.187,0,0,1,15.655-6.809Z" transform="translate(0 -17.091)" fill="#0068b7"/>
    <path id="Path_37" data-name="Path 37" d="M36.209,13.055A12.155,12.155,0,1,0,24.055,25.209,12.194,12.194,0,0,0,36.209,13.055ZM24.055,20.118a7.064,7.064,0,1,1,7.064-7.064A7.089,7.089,0,0,1,24.055,20.118Z" transform="translate(-4.109 0)" fill="#0068b7"/>
  </g>
</svg>
