<svg xmlns="http://www.w3.org/2000/svg" width="44.808" height="43.704" viewBox="0 0 44.808 43.704">
  <path id="iconfinder_github_317712" d="M22.411,0a22.407,22.407,0,0,0-7.08,43.665c1.12.2,1.473-.459,1.473-1.053,0-.532.011-2.02,0-3.889-6.231,1.354-7.523-2.951-7.523-2.951A5.933,5.933,0,0,0,6.8,32.494c-2.034-1.389.153-1.363.153-1.363a4.71,4.71,0,0,1,3.433,2.31c2,3.422,5.242,2.433,6.518,1.861a4.794,4.794,0,0,1,1.424-3c-4.975-.566-10.2-2.487-10.2-11.073a8.657,8.657,0,0,1,2.305-6.011,8.043,8.043,0,0,1,.22-5.93s1.881-.6,6.16,2.3a21.256,21.256,0,0,1,11.219,0c4.279-2.9,6.157-2.3,6.157-2.3a8.057,8.057,0,0,1,.223,5.93,8.655,8.655,0,0,1,2.3,6.011c0,8.608-5.238,10.5-10.23,11.055a5.3,5.3,0,0,1,1.534,4.128v6.2c0,.6.361,1.262,1.5,1.045A22.633,22.633,0,0,0,42.669,31.989a22.007,22.007,0,0,0,2.147-9.584,22.632,22.632,0,0,0-2.307-9.913A22.3,22.3,0,0,0,22.411,0Z" transform="translate(-0.008)" fill="#f5f5f5" fill-rule="evenodd"/>
</svg>
