<svg xmlns="http://www.w3.org/2000/svg" width="34.008" height="33.17" viewBox="0 0 34.008 33.17">
  <path id="githubblack" d="M17.011,0a17.007,17.007,0,0,0-5.374,33.141c.85.155,1.118-.349,1.118-.8,0-.4.009-1.533,0-2.952-4.729,1.028-5.709-2.24-5.709-2.24a4.5,4.5,0,0,0-1.887-2.487c-1.544-1.055.116-1.034.116-1.034a3.575,3.575,0,0,1,2.605,1.753,3.622,3.622,0,0,0,4.947,1.413,3.639,3.639,0,0,1,1.081-2.274c-3.776-.429-7.745-1.888-7.745-8.4a6.571,6.571,0,0,1,1.75-4.562,6.1,6.1,0,0,1,.167-4.5S9.508,6.595,12.756,8.8a16.132,16.132,0,0,1,8.515,0c3.248-2.2,4.673-1.744,4.673-1.744a6.115,6.115,0,0,1,.169,4.5,6.569,6.569,0,0,1,1.748,4.562c0,6.533-3.976,7.971-7.764,8.39a4.022,4.022,0,0,1,1.164,3.133v4.707c0,.455.274.958,1.137.793a17.178,17.178,0,0,0,9.989-8.86,16.7,16.7,0,0,0,1.629-7.274,17.177,17.177,0,0,0-1.751-7.524A16.923,16.923,0,0,0,17.011,0Z" transform="translate(-0.008)" fill="#2f2f2f" fill-rule="evenodd"/>
</svg>
