<svg xmlns="http://www.w3.org/2000/svg" width="30" height="30.4" viewBox="0 0 30 30.4">
  <g id="google" transform="translate(0.055)">
    <g id="Google-2" data-name="Google">
      <rect id="Rectangle_41" data-name="Rectangle 41" width="30" height="30" transform="translate(-0.055 0.2)" fill="none"/>
      <path id="Path_144" data-name="Path 144" d="M7.593,42.382A8.986,8.986,0,0,1,8.05,39.56L2.927,35.648a15.3,15.3,0,0,0,0,13.462l5.12-3.919a8.992,8.992,0,0,1-.452-2.809" transform="translate(-1.242 -27.182)" fill="#fbbc05" fill-rule="evenodd"/>
      <path id="Path_145" data-name="Path 145" d="M21.6,6.218a8.808,8.808,0,0,1,5.6,2L31.631,3.8A15.212,15.212,0,0,0,7.938,8.466l5.123,3.912A8.97,8.97,0,0,1,21.6,6.218" transform="translate(-6.253 0)" fill="#ea4335" fill-rule="evenodd"/>
      <path id="Path_146" data-name="Path 146" d="M21.6,82.041a8.97,8.97,0,0,1-8.538-6.16L7.938,79.792A15.176,15.176,0,0,0,21.6,88.259a14.506,14.506,0,0,0,9.918-3.788l-4.863-3.759A9.416,9.416,0,0,1,21.6,82.041" transform="translate(-6.253 -57.859)" fill="#34a853" fill-rule="evenodd"/>
      <path id="Path_147" data-name="Path 147" d="M79.987,55.128a12.59,12.59,0,0,0-.346-2.764H65.457v5.873h8.164a6.845,6.845,0,0,1-3.109,4.543l4.863,3.759a15.117,15.117,0,0,0,4.612-11.412" transform="translate(-50.111 -39.928)" fill="#4285f4" fill-rule="evenodd"/>
    </g>
  </g>
</svg>
