<svg xmlns="http://www.w3.org/2000/svg" width="25.2" height="25.2" viewBox="0 0 25.2 25.2">
  <g id="logout" transform="translate(-2 -2)">
    <g id="exit2" transform="translate(2 2)">
      <path id="Path_167"  d="M12.52,12.08a2.527,2.527,0,0,0,2.52-2.52V4.52a2.52,2.52,0,0,0-5.04,0V9.56A2.527,2.527,0,0,0,12.52,12.08Z" transform="translate(0.08 -2)" />
      <path id="Path_168" d="M23.546,5h0a1.721,1.721,0,0,0-1.386-.5,1.938,1.938,0,0,0-1.89,1.89,2.642,2.642,0,0,0,.5,1.386h0a8.562,8.562,0,0,1,2.52,6.174,8.82,8.82,0,0,1-17.64,0A8.461,8.461,0,0,1,8.3,7.776h0A2.023,2.023,0,0,0,8.93,6.39,1.938,1.938,0,0,0,7.04,4.5,2.642,2.642,0,0,0,5.654,5h0A12.6,12.6,0,1,0,23.546,5Z" transform="translate(-2 -1.35)" />
    </g>
  </g>
</svg>
