<svg id="notconnected" xmlns="http://www.w3.org/2000/svg" width="39.2" height="39.2" viewBox="0 0 39.2 39.2">
  <path id="Path_95" data-name="Path 95" d="M19.6,0a19.6,19.6,0,1,0,9.494,36.735l1.455-1.455h-2.9A17.568,17.568,0,0,1,8.208,33.06L8.4,33l1.57-.433,1.593-.368,1.6-.3.452-.111.436-.184.394-.249.352-.314.295-.36.237-.409.172-.436.092-.459.027-.467-.054-.467-.126-.452-.2-.425-.256-.387-.31-.433-.268-.448-.547-1.1-.486-1.129-.425-1.148-.364-1.175L12.3,20.553l-.234-1.206-.168-1.214-.1-1.221-.031-1.229.038-.769.115-.762.184-.746.26-.724.329-.7.394-.658.459-.62.513-.57.574-.517.616-.459.662-.39.7-.333.724-.256.743-.188.762-.115L19.6,7.84l.769.038.762.115.743.188.723.256.7.333.659.39.616.459.574.517.513.57.459.62.394.658.329.7.26.724.188.746.115.762.034.769-.031,1.229-.1,1.221-.168,1.214-.23,1.206-.3,1.191-.364,1.175-.222.6h2.09l.387-1.252.322-1.29.253-1.309.18-1.325.111-1.328.034-1.332-.034-.854-.115-.85-.184-.835-.26-.815-.325-.789-.394-.762-.456-.72-.524-.678-.574-.632L25.9,8.177l-.674-.521L24.5,7.193,23.742,6.8l-.789-.325-.815-.26L21.3,6.029l-.846-.111L19.6,5.88l-.854.038-.846.111-.838.184-.815.26-.789.325-.758.394-.72.463-.678.521-.635.574-.574.632-.521.678-.459.72-.394.762-.325.789-.26.815-.184.835-.111.85-.038.854.034,1.332.111,1.328.18,1.325.253,1.309.322,1.29.394,1.279.467,1.252.524,1.221.6,1.194.356.6.413.57.13.218.069.245.008.249-.061.249-.123.222-.172.184-.214.134-.245.073-1.681.318-1.669.387-1.65.456-1.229.394A17.634,17.634,0,1,1,37.24,19.6a17.479,17.479,0,0,1-1.328,6.68L37.4,27.765A19.562,19.562,0,0,0,19.6,0Zm9.8,25.48,5.88,5.88H21.56v1.96H35.28L29.4,39.2h2.94l6.86-6.86-6.86-6.86Z" fill="#222"/>
</svg>
