<svg xmlns="http://www.w3.org/2000/svg" width="24.2" height="32.947" viewBox="0 0 24.2 32.947">
  <g id="notifications" transform="translate(-5.3 -5.1)">
    <g id="Layer_3" transform="translate(5.3 5.1)">
      <path id="Path_155" data-name="Path 155" d="M29.063,29.057,26.585,26A1.977,1.977,0,0,1,26.2,24.83V18.512a8.849,8.849,0,0,0-6.415-8.5V7.53a2.437,2.437,0,0,0-2.43-2.43,2.469,2.469,0,0,0-2.43,2.43V9.96a8.835,8.835,0,0,0-6.415,8.553V24.83A1.977,1.977,0,0,1,8.119,26L5.64,29.057a1.534,1.534,0,0,0-.34.923V33.82H29.5V29.981A2.709,2.709,0,0,0,29.063,29.057ZM16.331,7.53a.972.972,0,0,1,1.944,0V9.717a6.844,6.844,0,0,0-1.992,0V7.53ZM27.945,32.313H6.661V29.981l2.478-3.061a3.22,3.22,0,0,0,.729-2.09V18.512a7.435,7.435,0,1,1,14.87,0V24.83a3.22,3.22,0,0,0,.729,2.09l2.478,3.061v2.333Z" transform="translate(-5.3 -5.1)" fill="#7a7265"/>
      <path id="Path_156" data-name="Path 156" d="M28,20.8v1.458a5.413,5.413,0,0,1,5.394,5.394h1.458A6.844,6.844,0,0,0,28,20.8Z" transform="translate(-16.969 -13.171)" fill="#7a7265"/>
      <path id="Path_157" data-name="Path 157" d="M25.785,67.227A2.51,2.51,0,0,1,23.258,64.7H21.8a3.985,3.985,0,0,0,7.97,0H28.312A2.51,2.51,0,0,1,25.785,67.227Z" transform="translate(-13.782 -35.737)" fill="#7a7265"/>
    </g>
  </g>
</svg>
