<svg xmlns="http://www.w3.org/2000/svg" width="159.901" height="142.23" viewBox="0 0 159.901 142.23">
  <g id="undraw_respond_8wjt" transform="translate(0 0.281)">
    <path id="Path_100" data-name="Path 100" d="M311.207,212.347l-6.076,6.811c5.048,2.141,10.157-.831,12.252-2.322a30.345,30.345,0,1,0-6.176-4.49Z" transform="translate(-294.872 -160.176)" fill="#e6e6e6"/>
    <path id="Path_101" data-name="Path 101" d="M354.464,253.689c6.268-.065,12.536-.177,18.8-.262q3.134-.043,6.269-.075a1.4,1.4,0,0,0,0-2.8c-6.268.065-12.536.177-18.8.262q-3.134.043-6.269.075a1.4,1.4,0,0,0,0,2.8Z" transform="translate(-333.712 -228.599)" fill="#fff"/>
    <path id="Path_102" data-name="Path 102" d="M354.464,280.326l25.334-.263,7.205-.075a1.4,1.4,0,0,0,0-2.8l-25.334.263-7.205.075A1.4,1.4,0,0,0,354.464,280.326Z" transform="translate(-333.712 -248.703)" fill="#fff"/>
    <path id="Path_103" data-name="Path 103" d="M354.464,306.964,379.8,306.7l7.205-.075a1.4,1.4,0,0,0,0-2.8l-25.334.263-7.205.075A1.4,1.4,0,0,0,354.464,306.964Z" transform="translate(-333.712 -268.808)" fill="#fff"/>
    <circle id="Ellipse_21" data-name="Ellipse 21" cx="2.207" cy="2.207" r="2.207" transform="translate(0 60.458)" fill="#e6e6e6"/>
    <path id="Path_104" data-name="Path 104" d="M706.079,362.072l-1.234,7.7a3.34,3.34,0,0,1-4.4,2.623h0a3.34,3.34,0,0,1-1.816-4.771l4.015-7.241,15.52-31a5.427,5.427,0,0,1,6.153-2.453l1.644.468-2.445,7.171Z" transform="translate(-594.172 -286.09)" fill="#a0616a"/>
    <path id="Path_105" data-name="Path 105" d="M612.094,489.658l3.633-.191-4.015-13.385-5.737,1.147Z" transform="translate(-457.357 -359.532)" fill="#a0616a"/>
    <path id="Path_106" data-name="Path 106" d="M482.791,501.559h4.016l2.1-13h-6.119Z" transform="translate(-364.384 -368.947)" fill="#a0616a"/>
    <path id="Path_107" data-name="Path 107" d="M782.753,220.557a10.836,10.836,0,1,0,21.671.23c0-.076,0-.154,0-.23a10.837,10.837,0,1,0-21.674,0Z" transform="translate(-657.981 -197.781)" fill="#2f2e41"/>
    <circle id="Ellipse_22" data-name="Ellipse 22" cx="5.583" cy="5.583" r="5.583" transform="translate(134.624 5.699)" fill="#2f2e41"/>
    <path id="Path_108" data-name="Path 108" d="M836.5,199.687a5.582,5.582,0,0,0,6.743-8.044,5.581,5.581,0,1,1-8.956,6.555A5.554,5.554,0,0,0,836.5,199.687Z" transform="translate(-696.879 -184.138)" fill="#2f2e41"/>
    <circle id="Ellipse_23" data-name="Ellipse 23" cx="6.261" cy="6.261" r="6.261" transform="translate(128.493 22.149)" fill="#a0616a"/>
    <path id="Path_109" data-name="Path 109" d="M797.063,286.2s.574,7.266,4.207,8.8l-14.15,13-4.589-2.1,3.251-9.178s7.457-1.53,4.4-8.222Z" transform="translate(-657.814 -255.501)" fill="#a0616a"/>
    <path id="Path_110" data-name="Path 110" d="M743.344,399.8l10.326.574,4.78-35.948,12.429,35.757,12.429-4.015L771.07,355.243c-3.151-11.319-.5-23.759,3.824-36.522l-4.78-1.338-10.9,1.53h0a6.33,6.33,0,0,0-5.523,3.254c-2.685,4.807-4.626,9.471-3.043,13.455C744.3,352.229,742.935,374.925,743.344,399.8Z" transform="translate(-628.188 -279.039)" fill="#2f2e41"/>
    <path id="Path_111" data-name="Path 111" d="M859.507,361.244l-2.655,7.334a3.339,3.339,0,0,0,2.578,4.429h0a3.34,3.34,0,0,0,3.9-3.292v-8.28l1.458-34.637a5.427,5.427,0,0,0-4.192-5.129l-1.665-.388-1.338,7.457Z" transform="translate(-713.756 -281.981)" fill="#a0616a"/>
    <path id="Path_112" data-name="Path 112" d="M900.152,692.826h0a3.376,3.376,0,0,0,3.374-2.556l.127-.508a12.12,12.12,0,0,0-.462-7.333l-1.28-3.291-3.824,1.721-1.177,8.107a3.376,3.376,0,0,0,3.242,3.859Z" transform="translate(-744.115 -552.073)" fill="#2f2e41"/>
    <path id="Path_113" data-name="Path 113" d="M727.48,703.017h0a2.877,2.877,0,0,0,2.8.108l7.281-4.1a2.617,2.617,0,0,0,1.293-2.735l-.825-4.676h-4.589l-6.558,6.977a2.877,2.877,0,0,0,.6,4.427Z" transform="translate(-615.222 -561.488)" fill="#2f2e41"/>
    <path id="Path_114" data-name="Path 114" d="M783.157,219.095a12,12,0,0,0,11.231,7.044,12.263,12.263,0,0,0,10.341-5.353c0-.076,0-.154,0-.23a10.837,10.837,0,0,0-21.575-1.461Z" transform="translate(-658.286 -197.78)" fill="#2f2e41"/>
    <path id="Path_115" data-name="Path 115" d="M518.93,285.269A30.288,30.288,0,1,0,503.2,311.841c2.095,1.49,7.2,4.463,12.252,2.322l-6.076-6.811A30.213,30.213,0,0,0,518.93,285.269Z" transform="translate(-413.143 -231.948)" fill="#e9b102"/>
    <path id="Path_116" data-name="Path 116" d="M514.487,348.417c6.268-.065,12.536-.177,18.8-.263q3.134-.043,6.269-.075a1.4,1.4,0,0,0,0-2.8c-6.268.065-12.536.177-18.8.262q-3.134.043-6.269.075A1.4,1.4,0,0,0,514.487,348.417Z" transform="translate(-454.489 -300.094)" fill="#fff"/>
    <path id="Path_117" data-name="Path 117" d="M514.487,375.054l25.334-.262,7.205-.075a1.4,1.4,0,0,0,0-2.8l-25.334.263-7.205.075a1.4,1.4,0,0,0,0,2.8Z" transform="translate(-454.488 -320.198)" fill="#fff"/>
    <path id="Path_118" data-name="Path 118" d="M514.487,401.692l25.334-.262,7.205-.075a1.4,1.4,0,0,0,0-2.8l-25.334.263-7.205.075A1.4,1.4,0,0,0,514.487,401.692Z" transform="translate(-454.489 -340.303)" fill="#fff"/>
  </g>
</svg>
