<svg xmlns="http://www.w3.org/2000/svg" width="19.359" height="16" viewBox="0 0 19.359 16">
  <g id="respondico" transform="translate(-0.999 -3)">
    <path id="Path_51" data-name="Path 51" d="M19.712,18.993a.758.758,0,0,0,.2,0,.617.617,0,0,0,.445-.615v-.615A11.871,11.871,0,0,0,10.034,6.223V3.615a.613.613,0,0,0-.357-.55A.672.672,0,0,0,9,3.123L1.257,8.659a.6.6,0,0,0,0,.984L9,15.18a.672.672,0,0,0,.676.058.613.613,0,0,0,.357-.55V12.381a12.139,12.139,0,0,1,7.788,4.564l1.368,1.8A.656.656,0,0,0,19.712,18.993ZM8.742,4.845V6.765a.626.626,0,0,0,.574.615A10.742,10.742,0,0,1,19,16.361l-.1-.129a13.5,13.5,0,0,0-9.44-5.167.665.665,0,0,0-.5.16.6.6,0,0,0-.213.455v1.778L2.722,9.151Z" transform="translate(0 0)" fill="#2f2f2f"/>
  </g>
</svg>
