<svg xmlns="http://www.w3.org/2000/svg" width="224.307" height="160.071" viewBox="0 0 224.307 160.071">
  <g id="undraw_Share_re_9kfx" transform="translate(0)">
    <circle id="Ellipse_28" data-name="Ellipse 28" cx="9.415" cy="9.415" r="9.415" transform="translate(8.094 3.307)" fill="#afafaf"/>
    <path id="Path_118" data-name="Path 118" d="M452.192,611.782a73.387,73.387,0,0,0,23.532,5.446,59.174,59.174,0,0,0,11.424-.253,20.941,20.941,0,0,0,9.415-3.288,13.967,13.967,0,0,0,5.453-8.2A18.364,18.364,0,0,0,501.3,595a26.134,26.134,0,0,0-5.76-9.306c-2.291-2.344-5.5-4.477-8.93-4.076a8.119,8.119,0,0,0-6.575,6.136c-1.053,3.7.159,7.61,1.8,10.939A34.764,34.764,0,0,0,494.4,612.448a36.392,36.392,0,0,0,17.774,5.7c6.332.285,13.142-1.183,18.131-5.274a15.879,15.879,0,0,0,5.355-8.331,22.843,22.843,0,0,0-.112-10.568c-1.664-7.505-6.06-13.957-8.606-21.141a34,34,0,0,1-1.453-5.387c-.084-.47-.8-.271-.717.2,1.316,7.39,5.482,13.753,8.216,20.636,2.491,6.269,3.973,13.966.284,20.087-3.319,5.506-9.911,8.19-16.059,8.875a34.289,34.289,0,0,1-17.676-2.87,35.547,35.547,0,0,1-14.123-11.245,27.385,27.385,0,0,1-4.514-8.895c-.886-3.284-.678-7,1.666-9.657a6.515,6.515,0,0,1,4.05-2.213,8.02,8.02,0,0,1,4.713,1.018,19.514,19.514,0,0,1,7.159,7.444,21.292,21.292,0,0,1,3.25,10.083,14.974,14.974,0,0,1-2.756,9.438c-4.132,5.564-11.9,6.24-18.272,6.282a72.645,72.645,0,0,1-23.006-3.589q-2.692-.88-5.309-1.968c-.441-.183-.634.536-.2.717Z" transform="translate(-376.475 -458.107)" fill="#e6e6e6"/>
    <path id="Path_119" data-name="Path 119" d="M368.1,604.336l-2-3.064a1.612,1.612,0,0,1,.47-2.228l12.158-9.451a1.612,1.612,0,0,1,2.228.47l2,3.064a1.612,1.612,0,0,1-.47,2.228l-12.158,9.451a1.612,1.612,0,0,1-2.228-.47Z" transform="translate(-311.707 -474.776)" fill="#2f2e41"/>
    <path id="Path_120" data-name="Path 120" d="M366.312,622.648l3.207-1.758a1.612,1.612,0,0,1,2.186.638l8.514,15.341a1.612,1.612,0,0,1-.638,2.186l-3.207,1.758a1.612,1.612,0,0,1-2.186-.638l-8.514-15.341A1.612,1.612,0,0,1,366.312,622.648Z" transform="translate(-311.428 -498.366)" fill="#2f2e41"/>
    <path id="Path_121" data-name="Path 121" d="M273.28,488.089a1.61,1.61,0,0,1-1.6-1.505l-.239-3.649a1.61,1.61,0,0,1,1.5-1.712l28.588-1.872a3.439,3.439,0,1,1,.449,6.863l-28.588,1.872Q273.334,488.089,273.28,488.089Z" transform="translate(-240.685 -392.037)" fill="#e9b102"/>
    <path id="Path_122" data-name="Path 122" d="M296.134,487.547a1.613,1.613,0,0,1-1.609-1.55l-.2-5.45a1.61,1.61,0,0,1,1.549-1.669L319.38,478a1.611,1.611,0,0,1,1.669,1.549l.2,5.45a1.61,1.61,0,0,1-1.549,1.669l-23.509.879Z" transform="translate(-257.902 -391.025)" fill="#ccc"/>
    <path id="Path_123" data-name="Path 123" d="M223.313,551.2V539.374a34.243,34.243,0,0,0-12.542-26.708c-6.008-4.844-14.709-8.466-27.175-7.657l4.749-19-41.012,28.061,40.149,28.061-4.1-17.916S208.419,519.472,223.313,551.2Z" transform="translate(-147.332 -397.056)" fill="#3f3d56"/>
    <path id="Path_124" data-name="Path 124" d="M327.243,583.446l-2.958-2.151a1.612,1.612,0,0,1-.355-2.25l17.923-24.651a1.612,1.612,0,0,1,2.25-.355l2.958,2.151a1.612,1.612,0,0,1,.355,2.25L329.492,583.09a1.612,1.612,0,0,1-2.25.356Z" transform="translate(-279.944 -447.996)" fill="#2f2e41"/>
    <path id="Path_125" data-name="Path 125" d="M323.77,645.755l2.369-2.786a1.612,1.612,0,0,1,2.27-.184l13.426,11.295a1.612,1.612,0,0,1,.184,2.27l-2.369,2.786a1.612,1.612,0,0,1-2.27.184l-13.426-11.295A1.612,1.612,0,0,1,323.77,645.755Z" transform="translate(-279.767 -514.698)" fill="#2f2e41"/>
    <circle id="Ellipse_29" data-name="Ellipse 29" cx="12.636" cy="12.636" r="12.636" transform="translate(47.591 55.985)" fill="#e9b102"/>
    <path id="Path_126" data-name="Path 126" d="M360.749,401.735a3,3,0,0,1-1.246-.243,2.015,2.015,0,0,1-1.085-1.309A1.356,1.356,0,0,1,358.64,399a1.753,1.753,0,0,1,1.57-.573l-1.659-4.645.467-.167,1.951,5.461-.44-.1a1.5,1.5,0,0,0-1.5.329.871.871,0,0,0-.132.761,1.523,1.523,0,0,0,.808.977,4.1,4.1,0,0,0,2.4.036l.088.488A8.17,8.17,0,0,1,360.749,401.735Z" transform="translate(-306.081 -327.549)" fill="#2f2e41"/>
    <rect id="Rectangle_37" data-name="Rectangle 37" width="2.669" height="0.495" transform="translate(47.569 67.692) rotate(-11.864)" fill="#2f2e41"/>
    <rect id="Rectangle_38" data-name="Rectangle 38" width="2.669" height="0.495" transform="translate(55.813 65.96) rotate(-11.864)" fill="#2f2e41"/>
    <path id="Path_127" data-name="Path 127" d="M361.913,506.217H340.606a2.108,2.108,0,0,1-2.106-2.106l4.461-34.207a2.1,2.1,0,0,1,2.1-2.09h7.562a11.4,11.4,0,0,1,11.392,11.392v24.9A2.108,2.108,0,0,1,361.913,506.217Z" transform="translate(-291.136 -383.365)" fill="#ccc"/>
    <path id="Path_128" data-name="Path 128" d="M289.259,509.167a1.613,1.613,0,0,1-1.472-.951l-1.5-3.337a1.61,1.61,0,0,1,.81-2.128l26.14-11.726a3.439,3.439,0,1,1,2.815,6.275l-26.14,11.727A1.6,1.6,0,0,1,289.259,509.167Z" transform="translate(-251.755 -400.597)" fill="#e9b102"/>
    <path id="Path_129" data-name="Path 129" d="M316.818,501.9a1.613,1.613,0,0,1-1.472-.951l-2.557-5.7a1.612,1.612,0,0,1,.81-2.128l21.465-9.629a1.61,1.61,0,0,1,2.129.81l2.557,5.7a1.61,1.61,0,0,1-.81,2.128l-21.465,9.629A1.6,1.6,0,0,1,316.818,501.9Z" transform="translate(-271.689 -395.051)" fill="#ccc"/>
    <path id="Path_130" data-name="Path 130" d="M343.474,339.288c-2.057-.758-3.748,1.239-5.613,1.7a4.518,4.518,0,0,1-4.658-2.091,5.592,5.592,0,0,1,.175-5.748,8.052,8.052,0,0,1,5.169-3.559,15.223,15.223,0,0,1,7.255.295,30.189,30.189,0,0,1,6.552,2.359,11.615,11.615,0,0,1,4.774,4.16,7.638,7.638,0,0,1,1,5.7,6,6,0,0,1-1.523,2.633c-.746.79-1.6,1.475-2.3,2.313-1.052,1.267-1.759,3.344-.722,4.842a2.426,2.426,0,0,0,.88.78c.424.221.8-.421.375-.642a2.046,2.046,0,0,1-1-1.982,4.032,4.032,0,0,1,.99-2.473c.729-.876,1.63-1.585,2.4-2.422a6.694,6.694,0,0,0,1.589-2.766,8.28,8.28,0,0,0-.849-5.994,11.711,11.711,0,0,0-4.715-4.5,29.257,29.257,0,0,0-6.686-2.57,17.272,17.272,0,0,0-7.582-.581,9.253,9.253,0,0,0-5.725,3.254,6.834,6.834,0,0,0-1.282,6.018,5.509,5.509,0,0,0,4.137,3.73,4.732,4.732,0,0,0,2.877-.375,21.591,21.591,0,0,1,2.869-1.393,2.215,2.215,0,0,1,1.407.037c.45.166.643-.552.2-.717Z" transform="translate(-286.051 -278.59)" fill="#2f2e41"/>
    <path id="Path_131" data-name="Path 131" d="M746,377.234V365.406A34.243,34.243,0,0,1,758.542,338.7c6.008-4.844,14.709-8.466,27.175-7.657l-4.749-19,41.012,28.061-40.149,28.061,4.1-17.916S760.894,345.5,746,377.234Z" transform="translate(-597.673 -266.19)" fill="#3f3d56"/>
    <path id="Path_132" data-name="Path 132" d="M832.093,308.531a3.439,3.439,0,0,1,1.795-6.1l28.488-3.042a1.612,1.612,0,0,1,1.772,1.43l-.123.013.123-.013.388,3.636a1.61,1.61,0,0,1-1.43,1.772l-28.488,3.042a3.492,3.492,0,0,1-.372.02A3.413,3.413,0,0,1,832.093,308.531Z" transform="translate(-661.473 -256.666)" fill="#e9b102"/>
    <path id="Path_133" data-name="Path 133" d="M869.847,421.7v-3.657a1.612,1.612,0,0,1,1.61-1.61h30.478a1.612,1.612,0,0,1,1.61,1.61V421.7a1.612,1.612,0,0,1-1.61,1.61H871.457a1.612,1.612,0,0,1-1.61-1.61Z" transform="translate(-690.836 -344.711)" fill="#e9b102"/>
    <path id="Path_134" data-name="Path 134" d="M804.86,389.593a1.6,1.6,0,0,1-.8-.933l-1.147-3.473a1.612,1.612,0,0,1,1.024-2.034l28.941-9.556a1.61,1.61,0,0,1,2.034,1.024l-.118.039.118-.039,1.147,3.472a1.612,1.612,0,0,1-1.024,2.034l-28.941,9.556a1.6,1.6,0,0,1-1.229-.091Z" transform="translate(-640.421 -312.43)" fill="#e9b102"/>
    <path id="Path_135" data-name="Path 135" d="M923.124,390.413,910.135,378.7a1.612,1.612,0,0,1-.118-2.274l2.449-2.716a1.611,1.611,0,0,1,2.274-.118L927.73,385.3a1.612,1.612,0,0,1,.118,2.275l-2.449,2.716a1.6,1.6,0,0,1-1.113.53l-.085,0A1.6,1.6,0,0,1,923.124,390.413Z" transform="translate(-720.742 -312.177)" fill="#e9b102"/>
    <circle id="Ellipse_30" data-name="Ellipse 30" cx="12.636" cy="12.636" r="12.636" transform="translate(156.724 10.891)" fill="#e9b102"/>
    <path id="Path_136" data-name="Path 136" d="M767.1,321.209a9.857,9.857,0,0,1,0-9.958l13.394-23.2a1.611,1.611,0,0,1,2.789,0l20.624,35.721a1.61,1.61,0,0,1-1.395,2.416H775.727A9.857,9.857,0,0,1,767.1,321.209Z" transform="translate(-612.532 -247.535)" fill="#ccc"/>
    <path id="Path_137" data-name="Path 137" d="M872.887,215.721a4.558,4.558,0,0,0,2.624-.625,2.015,2.015,0,0,0,.793-1.5,1.356,1.356,0,0,0-.461-1.113,1.749,1.749,0,0,0-1.655-.238l.669-4.887-.491-.067-.786,5.746.41-.188a1.5,1.5,0,0,1,1.533.014.871.871,0,0,1,.286.717,1.523,1.523,0,0,1-.59,1.122,4.1,4.1,0,0,1-2.345.53Z" transform="translate(-693.112 -187.385)" fill="#2f2e41"/>
    <rect id="Rectangle_39" data-name="Rectangle 39" width="2.669" height="0.496" transform="translate(175.749 20.389)" fill="#2f2e41"/>
    <path id="Path_138" data-name="Path 138" d="M707.932,135.589a10.464,10.464,0,0,0-5.264-6.758,10.129,10.129,0,0,0-8.692-.27,10.014,10.014,0,0,0-5.759,6.725,10.444,10.444,0,0,0-.159,4.581,11.882,11.882,0,0,0,2.006,4.46c.979,1.417,2.13,2.7,3.186,4.062a37.854,37.854,0,0,1,7.74,18.936,22.589,22.589,0,0,1,.114,4.7c-.285,3.044-1.464,6.026-4.171,7.682a14.168,14.168,0,0,1-4.743,1.653,21.586,21.586,0,0,1-5.614.439,10.668,10.668,0,0,1-8.214-4.258,7.587,7.587,0,0,1-.951-1.954c-.147-.456.57-.652.717-.2.979,3.035,3.949,4.9,6.956,5.475a17.015,17.015,0,0,0,5.655-.006,17.493,17.493,0,0,0,5.011-1.356,7.5,7.5,0,0,0,3.359-3.106,10.948,10.948,0,0,0,1.237-4.234,28.126,28.126,0,0,0-1.016-9.733,37.46,37.46,0,0,0-3.939-9.567,36.79,36.79,0,0,0-2.927-4.283c-1.065-1.342-2.2-2.633-3.161-4.055a12.215,12.215,0,0,1-1.964-4.465,11.316,11.316,0,0,1,.081-4.654,10.725,10.725,0,0,1,5.424-7.129,11.032,11.032,0,0,1,8.8-.71,11.245,11.245,0,0,1,6.3,5.791,10.722,10.722,0,0,1,.7,2.029c.109.465-.607.664-.717.2Z" transform="translate(-546.064 -126.965)" fill="#2f2e41"/>
    <path id="Path_139" data-name="Path 139" d="M769.213,150.3a5.722,5.722,0,0,0-6.681-3.682c-.465.109-.664-.608-.2-.717a6.4,6.4,0,0,1,7.6,4.2c.156.453-.562.648-.717.2Z" transform="translate(-609.76 -141.067)" fill="#2f2e41"/>
    <path id="Path_140" data-name="Path 140" d="M790.112,164.828a1.364,1.364,0,0,1,.714-1.79l3.414-1.468a1.363,1.363,0,1,1,1.076,2.5l-3.414,1.468a1.363,1.363,0,0,1-1.79-.714Z" transform="translate(-630.773 -152.913)" fill="#2f2e41"/>
    <path id="Path_141" data-name="Path 141" d="M808.808,353.671l-3.645-.3a1.612,1.612,0,0,1-1.475-1.736l2.318-28.556a3.439,3.439,0,1,1,6.855.557L810.543,352.2a1.611,1.611,0,0,1-1.6,1.48C808.9,353.676,808.852,353.674,808.808,353.671Z" transform="translate(-641.064 -272.115)" fill="#e9b102"/>
    <path id="Path_142" data-name="Path 142" d="M156.9,178.89a6.011,6.011,0,1,1,11.365-3.79,8.657,8.657,0,1,1,16.549-1.859,7.021,7.021,0,0,1,12.434,6.269l-41.469-.074" transform="translate(-153.684 -154.192)" fill="#f2f2f2"/>
    <path id="Path_143" data-name="Path 143" d="M495.9,318.89a6.011,6.011,0,1,1,11.365-3.79,8.657,8.657,0,1,1,16.549-1.859,7.021,7.021,0,0,1,12.434,6.269l-41.469-.074" transform="translate(-408.693 -259.506)" fill="#f2f2f2"/>
  </g>
</svg>
