<svg xmlns="http://www.w3.org/2000/svg" width="30.001" height="26.011" viewBox="0 0 30.001 26.011">
  <g id="Layer_51" data-name="Layer 51" transform="translate(-0.999 -3)">
    <path id="Path_51" data-name="Path 51" d="M2,29a1.12,1.12,0,0,1-.31,0A1,1,0,0,1,1,28V27A19,19,0,0,1,17,8.24L17,4a1,1,0,0,1,1.6-.8l12,9a1,1,0,0,1,0,1.6l-12,9A1,1,0,0,1,17,22V18.25A18.66,18.66,0,0,0,4.93,25.67L2.81,28.59A1,1,0,0,1,2,29ZM19,6V9.12a1,1,0,0,1-.89,1,17,17,0,0,0-15,14.6l.16-.21a20.68,20.68,0,0,1,14.63-8.4,1.011,1.011,0,0,1,1.1,1V20l9.33-7Z" fill="#91c4f2"/>
  </g>
</svg>
