<svg xmlns="http://www.w3.org/2000/svg" width="73.024" height="78.574" viewBox="0 0 73.024 78.574">
  <g id="iconfinder_m-40_4230528" transform="translate(-14.9 -6.4)">
    <path id="Path_39" data-name="Path 39" d="M165.755,168.318l-7.948,7.528-3.263-3.392a1.622,1.622,0,0,0-2.326,2.262l4.362,4.555a1.64,1.64,0,0,0,1.163.485,1.736,1.736,0,0,0,1.131-.452l9.111-8.659a1.629,1.629,0,0,0,.065-2.294A1.6,1.6,0,0,0,165.755,168.318Z" transform="translate(-92.636 -109.288)" fill="#0068b7"/>
    <path id="Path_40" data-name="Path 40" d="M155.111,140.174l-.226-1.357h-3.425a15.367,15.367,0,0,0-1.551-3.683c.485-.485.937-.969,1.422-1.422l1-.969-.808-1.131a21.772,21.772,0,0,0-4.717-4.717l-1.131-.808-.969,1-.9.9-.517.517a16.944,16.944,0,0,0-3.715-1.518v-3.425l-1.357-.226a20.107,20.107,0,0,0-6.526,0l-1.422.258.065,1.454v1.938a17.616,17.616,0,0,0-3.715,1.518l-.549-.549c-.291-.291-.614-.582-.9-.9l-.969-1-1.131.808a19.242,19.242,0,0,0-4.717,4.717l-.808,1.131,1,.969c.485.485.969.937,1.422,1.422a19.352,19.352,0,0,0-1.551,3.683h-3.425l-.226,1.357a19.251,19.251,0,0,0-.258,3.328,23.088,23.088,0,0,0,.258,3.328l.194,1.228,1.454.129h2a17.3,17.3,0,0,0,1.551,3.748l-.646.646-.582.582-.258.258-.9.969.775,1.066a20.013,20.013,0,0,0,4.685,4.652l1.034.743.969-.84.162-.162c.355-.388.711-.743,1.1-1.1l.291-.291a17.616,17.616,0,0,0,3.715,1.518v2l.1,1.454,1.292.194a20.728,20.728,0,0,0,6.526,0l1.389-.291-.032-1.422v-1.938a16.943,16.943,0,0,0,3.715-1.518l.258.258,1.1,1.1,1.1,1.034,1.066-.775a20.652,20.652,0,0,0,4.685-4.652l.775-1.1-.9-.969-.258-.258-.582-.582-.646-.646a16.4,16.4,0,0,0,1.551-3.748H153.3l1.583-.129.194-1.228a19.006,19.006,0,0,0,.258-3.328A16.007,16.007,0,0,0,155.111,140.174Zm-3.037,4.749H150.3l-1.486.162-.226,1.163a13.455,13.455,0,0,1-2.1,5.008l-.614.937.646.9a4.092,4.092,0,0,0,.355.42l1.163,1.163a19.542,19.542,0,0,1-2,2l-.162-.162-1-1a2.439,2.439,0,0,0-.452-.355l-.9-.582-.9.582a13.948,13.948,0,0,1-5.008,2.068l-1,.194-.258,1a2.534,2.534,0,0,0-.065.711v1.583a19.48,19.48,0,0,1-2.746,0v-1.583a4.84,4.84,0,0,0-.065-.711l-.258-1-1-.194a13.848,13.848,0,0,1-5.008-2.068l-.9-.582-.9.582a2.224,2.224,0,0,0-.42.355c-.323.355-.678.678-1,1.034l-.162.162a16.755,16.755,0,0,1-2-2l1.163-1.163a2.049,2.049,0,0,0,.355-.42l.614-.9-.614-.9a13.682,13.682,0,0,1-2.1-5.008l-.226-1.163-1.389-.162h-1.874c-.032-.485-.065-.937-.065-1.422s.032-.969.065-1.454c.517,0,1.034,0,1.518.032a6.275,6.275,0,0,0,.775-.065l.969-.258.194-1a13.324,13.324,0,0,1,2.068-4.943l.582-.872-.549-.9a2.754,2.754,0,0,0-.549-.646l-.42-.42-.582-.582a15.147,15.147,0,0,1,2.035-2.035c.355.355.743.711,1.1,1.1a3.038,3.038,0,0,0,.775.582l.808.355.743-.485a13.972,13.972,0,0,1,4.975-2.035l1-.194.258-.969a2.419,2.419,0,0,0,.065-.678v-1.615a19.475,19.475,0,0,1,2.746,0v1.615a4.4,4.4,0,0,0,.065.678l.258.969,1,.194a13.972,13.972,0,0,1,4.975,2.035l.743.485.808-.355a2.666,2.666,0,0,0,.775-.549c.355-.355.711-.743,1.1-1.1A15.147,15.147,0,0,1,148,132.485l-.646.646-.355.355a4.872,4.872,0,0,0-.549.646l-.582.9.582.872a13.883,13.883,0,0,1,2.068,4.943l.194,1,1,.258a1.993,1.993,0,0,0,.775.065c.517-.032,1.034-.032,1.518-.032.032.485.065.969.065,1.454A6.043,6.043,0,0,1,152.074,144.923Z" transform="translate(-67.421 -78.979)" fill="#0068b7"/>
    <path id="Path_41" data-name="Path 41" d="M43.8,24.977a9.289,9.289,0,1,0-9.3-9.3A9.307,9.307,0,0,0,43.8,24.977Zm0-15.346a6.042,6.042,0,1,1-6.042,6.042A6.053,6.053,0,0,1,43.8,9.631Z" transform="translate(-13.268 0)" fill="#0068b7"/>
    <path id="Path_42" data-name="Path 42" d="M41.716,84.477A1.631,1.631,0,0,0,39.971,86L38.55,106.8a1.4,1.4,0,0,1-.032.162l-1.325,20.225a1.623,1.623,0,0,1-1.615,1.518H25.529a1.6,1.6,0,0,1-1.615-1.518l-1.325-20.225a1.624,1.624,0,0,0-1.163-1.454c-1.874-.582-1.874-.582-2.035-2.649L18.2,81.408v-.162c1.777-.517,4.749-1.486,6.235-1.938l5.008,4.685a1.642,1.642,0,0,0,2.229,0l5.072-4.749L51.6,82.6a1.211,1.211,0,0,0,.678,0L66.3,79.728a1.616,1.616,0,1,0-.646-3.166L51.99,79.372,36.611,75.883a1.686,1.686,0,0,0-1.486.388l-4.588,4.3-4.588-4.3a1.557,1.557,0,0,0-1.615-.355s-4.749,1.518-7.172,2.229A3.014,3.014,0,0,0,14.9,81.182v.388l1.2,21.162.032.355c.226,3.231.775,4.265,3.263,5.169l1.26,19.126a4.93,4.93,0,0,0,4.879,4.588H35.577a4.906,4.906,0,0,0,4.879-4.588l1.325-20.063a.291.291,0,0,1,.032-.162l1.454-20.968A1.67,1.67,0,0,0,41.716,84.477Z" transform="translate(0 -46.997)" fill="#0068b7"/>
  </g>
</svg>
