<svg xmlns="http://www.w3.org/2000/svg" width="43.431" height="37.59" viewBox="0 0 43.431 37.59">
  <g id="_20-Topic" transform="translate(-4095.281 -3105.809)">
    <g id="g2327" transform="translate(4095.281 3105.809)">
      <path id="path2325" d="M-442.546-14.949l-3.136-2.792a1.269,1.269,0,0,0-.844-.321h-24.062V-38.514h28.042Zm-34.376-10.5a1.269,1.269,0,0,0-.844.321l-3.136,2.792V-45.9h28.042v4.852h-19a1.269,1.269,0,0,0-1.269,1.269v14.331Zm35.644-15.6h-9.045v-6.121a1.269,1.269,0,0,0-1.269-1.269H-482.17a1.269,1.269,0,0,0-1.269,1.269V-19.51a1.269,1.269,0,0,0,.75,1.158,1.267,1.267,0,0,0,.519.111,1.269,1.269,0,0,0,.844-.321l4.888-4.352h3.313v6.121a1.269,1.269,0,0,0,1.269,1.269h24.848l4.888,4.352a1.268,1.268,0,0,0,.844.321,1.267,1.267,0,0,0,.519-.111,1.269,1.269,0,0,0,.75-1.158V-39.783a1.269,1.269,0,0,0-1.269-1.269" transform="translate(483.439 48.441)" fill="#91c4f2"/>
    </g>
    <g id="g2331" transform="translate(4116.36 3119.641)">
      <path id="path2329" d="M0-13.731a1.269,1.269,0,0,0,1.269,1.269H14.351a1.269,1.269,0,0,0,1.269-1.269A1.269,1.269,0,0,0,14.351-15H1.269A1.269,1.269,0,0,0,0-13.731" transform="translate(0 15)" fill="#e9b102"/>
    </g>
    <g id="g2335" transform="translate(4116.36 3124.538)">
      <path id="path2333" d="M-122.728-30H-132.8a1.269,1.269,0,0,0-1.269,1.269,1.269,1.269,0,0,0,1.269,1.269h10.072a1.269,1.269,0,0,0,1.269-1.269A1.269,1.269,0,0,0-122.728-30" transform="translate(134.069 30)" fill="#e9b102"/>
    </g>
    <g id="g2339" transform="translate(4116.36 3129.435)">
      <path id="path2337" d="M-84.52-30h-6.541a1.269,1.269,0,0,0-1.269,1.269,1.269,1.269,0,0,0,1.269,1.269h6.541a1.269,1.269,0,0,0,1.269-1.269A1.269,1.269,0,0,0-84.52-30" transform="translate(92.33 30)" fill="#e9b102"/>
    </g>
    <g id="g2343" transform="translate(4114.864 3122.178) rotate(180)">
      <path id="path2341" d="M1.269,2.537A1.268,1.268,0,1,0,0,1.268,1.269,1.269,0,0,0,1.269,2.537" transform="translate(0)" fill="#e9b102"/>
    </g>
    <g id="g2347" transform="translate(4114.864 3131.822) rotate(180)">
      <path id="path2345" d="M1.269,2.538A1.269,1.269,0,1,0,0,1.269a1.269,1.269,0,0,0,1.269,1.27" transform="translate(0)" fill="#e9b102"/>
    </g>
    <g id="g2351" transform="translate(4114.864 3127) rotate(180)">
      <path id="path2349" d="M1.269,2.538A1.269,1.269,0,1,0,0,1.27,1.269,1.269,0,0,0,1.269,2.538" transform="translate(0)" fill="#e9b102"/>
    </g>
  </g>
</svg>
