<svg xmlns="http://www.w3.org/2000/svg" width="46" height="46" viewBox="0 0 46 46">
  <g id="layer1" transform="translate(-0.2 -552.562)">
    <rect id="rect2990-1" width="46" height="46" rx="23" transform="translate(0.2 552.562)" fill="#55acee"/>
    <path id="rect2989" d="M110.559,672.306a6.159,6.159,0,0,0-5.821,7.537,17.431,17.431,0,0,1-12.655-6.415,6.142,6.142,0,0,0,1.9,8.2,6.126,6.126,0,0,1-2.782-.769c0,.026,0,.053,0,.08a6.142,6.142,0,0,0,4.926,6.018,6.171,6.171,0,0,1-1.618.215,6.08,6.08,0,0,1-1.155-.11,6.143,6.143,0,0,0,5.732,4.264A12.429,12.429,0,0,1,90,693.866a17.368,17.368,0,0,0,9.41,2.759c11.293,0,17.468-9.355,17.468-17.468,0-.266,0-.534-.016-.8a12.434,12.434,0,0,0,3.063-3.177,12.211,12.211,0,0,1-3.525.968,6.151,6.151,0,0,0,2.7-3.4,12.3,12.3,0,0,1-3.9,1.492,6.131,6.131,0,0,0-4.482-1.938C110.665,672.306,110.612,672.3,110.559,672.306Z" transform="translate(-81.562 -108.706)" fill="#fff"/>
  </g>
</svg>
