<svg id="undraw_Upvote_re_qn2k" xmlns="http://www.w3.org/2000/svg" width="216.287" height="142.262" viewBox="0 0 216.287 142.262">
  <path id="Path_100" data-name="Path 100" d="M484.7,348.926H293.447A4.93,4.93,0,0,1,288.523,344V226.071a3.612,3.612,0,0,1,3.608-3.608H485.954a3.674,3.674,0,0,1,3.67,3.67V344A4.93,4.93,0,0,1,484.7,348.926Z" transform="translate(-273.337 -219.239)" fill="#f2f2f2"/>
  <path id="Path_101" data-name="Path 101" d="M495,365.8H316.758a4.6,4.6,0,0,1-4.739-4.437V258.664a3.41,3.41,0,0,1,3.511-3.291H496.169a3.467,3.467,0,0,1,3.57,3.345V361.359A4.6,4.6,0,0,1,495,365.8Z" transform="translate(-289.821 -242.326)" fill="#fff"/>
  <path id="Path_102" data-name="Path 102" d="M489.393,219.1h-201.1V216.6a4.946,4.946,0,0,1,4.942-4.939H484.451a4.946,4.946,0,0,1,4.942,4.939Z" transform="translate(-273.175 -211.658)" fill="#3f3d56"/>
  <circle id="Ellipse_21" data-name="Ellipse 21" cx="1.278" cy="1.278" r="1.278" transform="translate(22.82 2.452)" fill="#fff"/>
  <circle id="Ellipse_22" data-name="Ellipse 22" cx="1.278" cy="1.278" r="1.278" transform="translate(27.673 2.452)" fill="#fff"/>
  <circle id="Ellipse_23" data-name="Ellipse 23" cx="1.278" cy="1.278" r="1.278" transform="translate(32.525 2.452)" fill="#fff"/>
  <rect id="Rectangle_34" data-name="Rectangle 34" width="96.695" height="12.244" rx="6.122" transform="translate(75.756 40.702)" fill="#e6e6e6"/>
  <rect id="Rectangle_35" data-name="Rectangle 35" width="96.695" height="12.244" rx="6.122" transform="translate(75.756 60.963)" fill="#e6e6e6"/>
  <rect id="Rectangle_36" data-name="Rectangle 36" width="96.695" height="12.244" rx="6.122" transform="translate(75.756 81.223)" fill="#e6e6e6"/>
  <circle id="Ellipse_24" data-name="Ellipse 24" cx="6.267" cy="6.267" r="6.267" transform="translate(58.745 60.817)" fill="#e6e6e6"/>
  <path id="Path_103" data-name="Path 103" d="M452.267,429.842l-1.9-2.047a.457.457,0,0,0-.669,0l-1.9,2.047a.3.3,0,1,0,.437.407l1.5-1.615V432.6a.3.3,0,1,0,.6,0v-3.967l1.5,1.616a.3.3,0,0,0,.438-.407Z" transform="translate(-385.017 -363.189)" fill="#fff"/>
  <circle id="Ellipse_25" data-name="Ellipse 25" cx="6.267" cy="6.267" r="6.267" transform="translate(58.745 81.078)" fill="#e6e6e6"/>
  <path id="Path_104" data-name="Path 104" d="M452.267,497.73l-1.9-2.047a.457.457,0,0,0-.669,0l-1.9,2.047a.3.3,0,0,0,.437.407l1.5-1.615v3.966a.3.3,0,1,0,.6,0V496.52l1.5,1.616a.3.3,0,0,0,.438-.407Z" transform="translate(-385.017 -410.816)" fill="#fff"/>
  <circle id="Ellipse_26" data-name="Ellipse 26" cx="6.267" cy="6.267" r="6.267" transform="translate(58.745 40.557)" fill="#e9b102"/>
  <path id="Path_105" data-name="Path 105" d="M452.267,361.953l-1.9-2.047a.457.457,0,0,0-.669,0l-1.9,2.047a.3.3,0,1,0,.437.407l1.5-1.615v3.966a.3.3,0,0,0,.6,0v-3.967l1.5,1.616a.3.3,0,0,0,.438-.407Z" transform="translate(-385.017 -315.561)" fill="#fff"/>
  <path id="Path_106" data-name="Path 106" d="M405.131,367.96a3,3,0,0,0-3.279,3.229l-9.761,4.3,4.656,3.006,8.556-4.54a3.017,3.017,0,0,0-.172-5.99Z" transform="translate(-345.996 -321.303)" fill="#a0616a"/>
  <circle id="Ellipse_27" data-name="Ellipse 27" cx="7.33" cy="7.33" r="7.33" transform="translate(12.431 26.638)" fill="#a0616a"/>
  <path id="Path_107" data-name="Path 107" d="M110.666,430.855h3.659l1.741-14.113h-5.4Z" transform="translate(-77.638 -292.369)" fill="#a0616a"/>
  <path id="Path_108" data-name="Path 108" d="M345.178,671.685h7.206a4.592,4.592,0,0,1,4.592,4.592v.149h-11.8Z" transform="translate(-313.084 -534.394)" fill="#2f2e41"/>
  <path id="Path_109" data-name="Path 109" d="M59.666,430.855h3.659l1.741-14.113h-5.4Z" transform="translate(-41.859 -292.369)" fill="#a0616a"/>
  <path id="Path_110" data-name="Path 110" d="M294.178,671.685h7.206a4.592,4.592,0,0,1,4.592,4.592v.149h-11.8Z" transform="translate(-277.304 -534.394)" fill="#2f2e41"/>
  <path id="Path_111" data-name="Path 111" d="M293.436,536.074a1.343,1.343,0,0,1-.455-1l-.172-52.884,19.107-.736.14-.005,3.142,31.722.394,20.209a1.339,1.339,0,0,1-1.186,1.36l-4.638.546a1.342,1.342,0,0,1-1.5-1.282l-.826-21.469-4.009-13.365a.448.448,0,0,0-.853.165l-1.561,35.146a1.341,1.341,0,0,1-1.177,1.264l-5.356.659a1.34,1.34,0,0,1-1.052-.326Z" transform="translate(-276.344 -400.93)" fill="#2f2e41"/>
  <path id="Path_112" data-name="Path 112" d="M276.583,397.551l-5.661-22.989c-1.764-7.163,2.265-14.376,8.982-16.078a11.4,11.4,0,0,1,9.284,1.655,13.171,13.171,0,0,1,5.575,9.19l3.7,27.215a1.343,1.343,0,0,1-1.3,1.523l-19.243.5h-.035A1.351,1.351,0,0,1,276.583,397.551Z" transform="translate(-260.698 -314.417)" fill="#e9b102"/>
  <path id="Path_113" data-name="Path 113" d="M330.207,381.14l-14.351-6.971a4.821,4.821,0,1,1,4.908-8.26l11.612,8.293,12.535-4.992a1.338,1.338,0,0,1,1.472.324l1.691,1.785a1.343,1.343,0,0,1-.238,2.046l-11.222,7.363a6.53,6.53,0,0,1-6.406.412Z" transform="translate(-290.607 -319.244)" fill="#e9b102"/>
  <path id="Path_114" data-name="Path 114" d="M280.611,311.311a3.853,3.853,0,0,1-1.67-.345c-.234-.1-.476-.187-.71-.29-2.061-.909-3.418-3.414-3.467-5.935a9.045,9.045,0,0,1,2.793-6.581,10.06,10.06,0,0,1,6.1-2.632c2.373-.206,5.044.481,6.37,2.736a2.64,2.64,0,0,1,.391,2.054,1.344,1.344,0,0,1-.324.569c-.592.6-1.182.149-1.786.109a2.033,2.033,0,0,0-1.842,1.61,5.508,5.508,0,0,0,.066,2.8l0,.017a1.537,1.537,0,0,1-1.361,1.873,7.157,7.157,0,0,1-2.2,0,1.24,1.24,0,0,0-1.639.378,2.272,2.272,0,0,0-.207.683c-.292,1.521-.225,1.431-.518,2.951Z" transform="translate(-263.684 -270.474)" fill="#2f2e41"/>
  <path id="Path_115" data-name="Path 115" d="M274.6,495.712a3,3,0,0,0-1.066-4.476L274.9,480.66l-4.981,2.429-.542,9.67a3.017,3.017,0,0,0,5.215,2.953Z" transform="translate(-259.743 -400.379)" fill="#a0616a"/>
  <path id="Path_116" data-name="Path 116" d="M273.3,415.559a1.375,1.375,0,0,1-.28.066l-5.027.636a1.343,1.343,0,0,1-1.511-1.334l.04-35.1a4.257,4.257,0,0,1,3.629-4.186h0a4.235,4.235,0,0,1,4.82,4.6L273.5,395.363l.685,18.881a1.335,1.335,0,0,1-.894,1.315Z" transform="translate(-257.87 -326.669)" fill="#e9b102"/>
  <path id="Path_117" data-name="Path 117" d="M299.415,686.939H237.936a.3.3,0,1,1,0-.6h61.479a.3.3,0,1,1,0,.6Z" transform="translate(-237.638 -544.677)" fill="#ccc"/>
</svg>
