<svg xmlns="http://www.w3.org/2000/svg" width="19.6" height="15" viewBox="0 0 19.6 15">
  <g id="view" transform="translate(-5.4 -5.4)">
    <g id="Layer_3" transform="translate(5.4 5.4)">
      <path id="Path_97" data-name="Path 97" d="M15.2,5.4c-5.41,0-9.8,3.36-9.8,7.5s4.39,7.5,9.771,7.5,9.8-3.36,9.828-7.5h0C24.971,8.76,20.61,5.422,15.2,5.4Zm0,14.35c-4.928,0-8.95-3.078-8.95-6.85s4.022-6.85,8.95-6.85,8.922,3.078,8.95,6.85h0C24.122,16.672,20.128,19.728,15.2,19.75Z" transform="translate(-5.4 -5.4)"/>
      <path id="Path_98" data-name="Path 98" d="M28.618,29.81a8.554,8.554,0,0,0-11.924-2.124A8.412,8.412,0,0,0,14.57,29.81l-.17.255.17.255a8.554,8.554,0,0,0,11.924,2.124,8.412,8.412,0,0,0,2.124-2.124l.17-.255Zm-7.024,3.314a7.7,7.7,0,0,1-6.146-3.059,7.724,7.724,0,0,1,10.819-1.5,7.539,7.539,0,0,1,1.5,1.5A7.8,7.8,0,0,1,21.594,33.124Z" transform="translate(-11.851 -22.565)"/>
      <path id="Path_99" data-name="Path 99" d="M33.792,31.2a2.492,2.492,0,1,0,2.492,2.492A2.553,2.553,0,0,0,33.792,31.2Zm0,4.164a1.643,1.643,0,1,1,1.643-1.643h0A1.662,1.662,0,0,1,33.792,35.364Z" transform="translate(-23.964 -26.192)"/>
      <circle id="Ellipse_20" data-name="Ellipse 20" cx="0.935" cy="0.935" r="0.935" transform="translate(8.893 6.565)"/>
    </g>
  </g>
</svg>
