<svg xmlns="http://www.w3.org/2000/svg" width="28.608" height="37.262" viewBox="0 0 28.608 37.262">
  <g id="iconfinder_000-Vote-done_6971196" transform="translate(-7.807 -0.739)">
    <path id="Path_48" data-name="Path 48" d="M33.324,7.386a1.741,1.741,0,0,0-.71-2.353L25,.944a1.742,1.742,0,0,0-2.353.71L16.835,12.478a1.737,1.737,0,0,0,.71,2.353l7.618,4.085a1.747,1.747,0,0,0,2.353-.71Zm-6.443,3.046A23.221,23.221,0,0,0,24.115,12.9a.885.885,0,0,1-1.49-.245c-.239-.545-1.048-2.1-1.347-2.67a.316.316,0,0,1,.111-.413c.812-.513,1.909.892,2.246,1.37a25.491,25.491,0,0,1,2.227-1.935c2.031-1.542,3.476-1.56,4.238-1.385a.316.316,0,0,1,.1.574c-.871.561-2.606,1.691-3.319,2.232Z" transform="translate(-2.97)" fill="#e9b102"/>
    <path id="Path_49" data-name="Path 49" d="M27.146,26.8l8.515,3.566L22.109,36.037,8.557,30.362l7.432-3.113" transform="translate(0 -9.589)" fill="none" stroke="#91c4f2" stroke-linecap="round" stroke-linejoin="round" stroke-width="1.5"/>
    <line id="Line_3" data-name="Line 3" x1="5.755" y1="2.41" transform="translate(19.232 19.568)" fill="none" stroke="#91c4f2" stroke-linecap="round" stroke-linejoin="round" stroke-width="1.5"/>
    <path id="Path_50" data-name="Path 50" d="M8.557,32.438v10.02a1.336,1.336,0,0,0,.822,1.232l12.216,5.115a1.336,1.336,0,0,0,1.033,0L34.843,43.69a1.336,1.336,0,0,0,.822-1.232V32.438" transform="translate(0 -11.665)" fill="none" stroke="#91c4f2" stroke-linecap="round" stroke-linejoin="round" stroke-width="1.5"/>
    <line id="Line_4" data-name="Line 4" y2="10.797" transform="translate(22.109 26.448)" fill="none" stroke="#91c4f2" stroke-linecap="round" stroke-linejoin="round" stroke-width="1.5"/>
  </g>
</svg>
